<svg width="79" height="79" viewBox="0 0 79 79" fill="none" xmlns="http://www.w3.org/2000/svg">
<path d="M46.0833 32.5875V26.9917C47.8937 26.2236 49.7459 25.6476 51.6397 25.2635C53.5313 24.8795 55.5194 24.6875 57.6042 24.6875C59.0306 24.6875 60.4295 24.7972 61.801 25.0167C63.1726 25.2361 64.5167 25.5104 65.8333 25.8396V31.1062C64.5167 30.6125 63.1868 30.2427 61.8438 29.9969C60.4986 29.749 59.0854 29.625 57.6042 29.625C55.5194 29.625 53.517 29.8861 51.5969 30.4084C49.6767 30.9285 47.8389 31.6549 46.0833 32.5875ZM46.0833 50.6917V45.0958C47.8937 44.3278 49.7459 43.7517 51.6397 43.3677C53.5313 42.9837 55.5194 42.7917 57.6042 42.7917C59.0306 42.7917 60.4295 42.9014 61.801 43.1208C63.1726 43.3403 64.5167 43.6146 65.8333 43.9437V49.2104C64.5167 48.7167 63.1868 48.3469 61.8438 48.1011C60.4986 47.8531 59.0854 47.7292 57.6042 47.7292C55.5194 47.7292 53.517 47.976 51.5969 48.4698C49.6767 48.9635 47.8389 49.7042 46.0833 50.6917ZM46.0833 41.6396V36.0437C47.8937 35.2757 49.7459 34.6996 51.6397 34.3156C53.5313 33.9316 55.5194 33.7396 57.6042 33.7396C59.0306 33.7396 60.4295 33.8493 61.801 34.0687C63.1726 34.2882 64.5167 34.5625 65.8333 34.8917V40.1583C64.5167 39.6646 63.1868 39.2948 61.8438 39.049C60.4986 38.8011 59.0854 38.6771 57.6042 38.6771C55.5194 38.6771 53.517 38.9382 51.5969 39.4605C49.6767 39.9806 47.8389 40.7069 46.0833 41.6396ZM21.3958 52.6667C23.9743 52.6667 26.4847 52.9541 28.9272 53.5291C31.3674 54.1062 33.7944 54.9708 36.2083 56.1229V23.7C33.959 22.3833 31.5726 21.3958 29.049 20.7375C26.5253 20.0792 23.9743 19.75 21.3958 19.75C19.4208 19.75 17.4601 19.942 15.5136 20.326C13.5649 20.7101 11.6854 21.2861 9.87499 22.0542V54.6417C11.7951 53.9833 13.7021 53.4896 15.5959 53.1604C17.4875 52.8312 19.4208 52.6667 21.3958 52.6667ZM42.7917 56.1229C45.2055 54.9708 47.6337 54.1062 50.0761 53.5291C52.5163 52.9541 55.0257 52.6667 57.6042 52.6667C59.5792 52.6667 61.5136 52.8312 63.4074 53.1604C65.299 53.4896 67.2049 53.9833 69.125 54.6417V22.0542C67.3146 21.2861 65.4361 20.7101 63.4897 20.326C61.541 19.942 59.5792 19.75 57.6042 19.75C55.0257 19.75 52.4746 20.0792 49.951 20.7375C47.4274 21.3958 45.041 22.3833 42.7917 23.7V56.1229ZM39.5 65.8333C36.8667 63.7486 34.0139 62.1302 30.9417 60.9781C27.8694 59.826 24.6875 59.25 21.3958 59.25C18.4882 59.25 15.4434 59.7986 12.2614 60.8958C9.0795 61.993 6.08957 63.6937 3.29166 65.9979V18.2687C5.70555 16.6229 8.54516 15.3611 11.8105 14.4833C15.0736 13.6055 18.2687 13.1667 21.3958 13.1667C24.5778 13.1667 27.6917 13.5781 30.7376 14.401C33.7813 15.2239 36.7021 16.4583 39.5 18.1042C42.2979 16.4583 45.2198 15.2239 48.2657 14.401C51.3094 13.5781 54.4222 13.1667 57.6042 13.1667C60.7312 13.1667 63.9275 13.6055 67.1928 14.4833C70.4559 15.3611 73.2944 16.6229 75.7083 18.2687V65.9979C72.9653 63.6937 69.9896 61.993 66.7813 60.8958C63.5709 59.7986 60.5118 59.25 57.6042 59.25C54.3125 59.25 51.1306 59.826 48.0583 60.9781C44.9861 62.1302 42.1333 63.7486 39.5 65.8333Z" fill="#99583C"/>
</svg>
