<svg width="95" height="95" viewBox="0 0 95 95" fill="none" xmlns="http://www.w3.org/2000/svg">
<path d="M47.4921 7.90875C52.2579 7.90875 56.8258 8.75188 61.0573 10.2917L56.3271 15.0179C49.1685 13.0714 41.5673 13.5447 34.7055 16.3643C27.8437 19.184 22.1059 24.1919 18.3842 30.6093C14.6625 37.0267 13.1656 44.4941 14.1262 51.8501C15.0868 59.2062 18.4511 66.0387 23.6959 71.2853C28.9407 76.5319 35.7721 79.8984 43.1278 80.8615C50.4836 81.8245 57.9514 80.3301 64.3701 76.6106C70.7888 72.891 75.7986 67.1549 78.6205 60.294C81.4424 53.4332 81.9183 45.8322 79.9742 38.6729L84.7004 33.9467C86.2812 38.2903 87.0878 42.8776 87.0833 47.5C87.0833 69.3658 69.3579 87.0913 47.4921 87.0913C25.6262 87.0913 7.90083 69.3658 7.90083 47.5C7.90083 25.6342 25.6262 7.90875 47.4921 7.90875ZM47.4921 23.75C49.4977 23.7491 51.4953 24.0018 53.4375 24.5021V30.7048C49.6286 29.3573 45.4747 29.3446 41.6577 30.669C37.8406 31.9934 34.5872 34.5761 32.4315 37.9932C30.2757 41.4103 29.3457 45.4587 29.794 49.4741C30.2424 53.4894 32.0425 57.233 34.8989 60.0904C37.7553 62.9478 41.4982 64.7493 45.5134 65.1991C49.5285 65.6489 53.5773 64.7204 56.9952 62.5659C60.4131 60.4114 62.997 57.1589 64.3227 53.3424C65.6485 49.5258 65.6374 45.3719 64.2913 41.5625H70.494C71.7323 46.3585 71.4401 51.4216 69.6583 56.0433C67.8766 60.6649 64.6944 64.6139 60.5572 67.3374C56.4199 70.061 51.5346 71.4229 46.5851 71.2324C41.6355 71.042 36.8693 69.3088 32.9535 66.2755C29.0378 63.2421 26.1684 59.0603 24.747 54.3154C23.3256 49.5705 23.4233 44.4999 25.0264 39.8132C26.6296 35.1266 29.6579 31.0585 33.6876 28.1782C37.7173 25.2979 42.5468 23.7496 47.5 23.75H47.4921ZM55.4088 47.5C55.4082 49.2015 54.8595 50.8576 53.8438 52.2228C52.8282 53.588 51.3998 54.5896 49.7702 55.0793C48.1407 55.5689 46.3967 55.5205 44.7968 54.9412C43.1969 54.3619 41.8263 53.2826 40.888 51.8631C39.9496 50.4437 39.4936 48.7597 39.5875 47.0608C39.6813 45.3619 40.32 43.7384 41.409 42.4309C42.4979 41.1235 43.9792 40.2017 45.6331 39.8021C47.2871 39.4026 49.0257 39.5466 50.5915 40.2127L57.3998 33.4044L57.3958 20.7813C57.3965 19.9942 57.7098 19.2395 58.2667 18.6833L68.1625 8.7875C68.5777 8.37284 69.1064 8.09052 69.682 7.97618C70.2575 7.86185 70.854 7.92063 71.3962 8.14512C71.9383 8.3696 72.4018 8.74971 72.728 9.23744C73.0543 9.72516 73.2287 10.2986 73.2292 10.8854V21.7708H84.1146C84.7014 21.7714 85.2748 21.9457 85.7626 22.272C86.2503 22.5982 86.6304 23.0617 86.8549 23.6038C87.0794 24.146 87.1382 24.7425 87.0238 25.318C86.9095 25.8936 86.6272 26.4223 86.2125 26.8375L76.3167 36.7333C75.7605 37.2902 75.0058 37.6035 74.2188 37.6042H61.5917L54.7833 44.4125C55.1871 45.3625 55.4088 46.4035 55.4088 47.5ZM72.9877 31.6667L76.946 27.7083H70.2565C69.4691 27.7083 68.714 27.3956 68.1572 26.8388C67.6005 26.2821 67.2877 25.5269 67.2877 24.7396V18.05L63.3333 22.0083V31.4331C63.4159 31.5075 63.4939 31.5869 63.5669 31.6706H72.9877V31.6667Z" fill="#99583C"/>
</svg>
