<svg width="79" height="79" viewBox="0 0 79 79" fill="none" xmlns="http://www.w3.org/2000/svg">
<path d="M72.4167 36.2083C72.4259 33.8882 71.8219 31.6069 70.6658 29.5953C69.5097 27.5837 67.8426 25.9134 65.8333 24.7533C65.8829 24.1838 65.8829 23.6111 65.8333 23.0417C65.8333 20.4226 64.7929 17.9109 62.941 16.059C61.0891 14.2071 58.5773 13.1667 55.9583 13.1667H55.3658C54.8177 11.6469 53.905 10.2849 52.7079 9.20003C51.5108 8.11514 50.0659 7.34052 48.4997 6.94411C46.9335 6.54769 45.294 6.54158 43.7249 6.92632C42.1559 7.31106 40.7051 8.07489 39.5 9.15083C38.2949 8.07489 36.8441 7.31106 35.2751 6.92632C33.706 6.54158 32.0665 6.54769 30.5003 6.94411C28.9341 7.34052 27.4892 8.11514 26.2921 9.20003C25.095 10.2849 24.1823 11.6469 23.6342 13.1667H23.0417C20.4227 13.1667 17.9109 14.2071 16.059 16.059C14.2071 17.9109 13.1667 20.4226 13.1667 23.0417C13.1171 23.6111 13.1171 24.1838 13.1667 24.7533C11.2985 25.8093 9.71677 27.3058 8.55912 29.1127C7.40148 30.9196 6.70301 32.9821 6.52453 35.1206C6.34606 37.2591 6.69297 39.4088 7.53509 41.3826C8.3772 43.3564 9.68898 45.0944 11.3562 46.4454C10.2775 48.4575 9.74042 50.7155 9.79779 52.9978C9.85517 55.2801 10.505 57.5083 11.6835 59.4636C12.862 61.419 14.5287 63.0343 16.52 64.151C18.5113 65.2677 20.7587 65.8474 23.0417 65.8333H23.6342C24.1823 67.3531 25.095 68.7151 26.2921 69.8C27.4892 70.8849 28.9341 71.6595 30.5003 72.0559C32.0665 72.4523 33.706 72.4584 35.2751 72.0737C36.8441 71.6889 38.2949 70.9251 39.5 69.8492C40.7051 70.9251 42.1559 71.6889 43.7249 72.0737C45.294 72.4584 46.9335 72.4523 48.4997 72.0559C50.0659 71.6595 51.5108 70.8849 52.7079 69.8C53.905 68.7151 54.8177 67.3531 55.3658 65.8333H55.9583C58.2274 65.819 60.4542 65.2185 62.4228 64.0901C64.3914 62.9617 66.035 61.3437 67.1942 59.393C68.3533 57.4423 68.9887 55.2252 69.0386 52.9567C69.0885 50.6881 68.5514 48.4452 67.4792 46.4454C69.0145 45.2162 70.255 43.6586 71.1094 41.8871C71.9638 40.1155 72.4105 38.1751 72.4167 36.2083ZM36.2083 28.1437C35.4914 27.7337 34.7429 27.3815 33.97 27.0904C33.1406 26.811 32.2343 26.8726 31.4503 27.2615C30.6663 27.6504 30.0689 28.3348 29.7896 29.1642C29.5102 29.9935 29.5718 30.8999 29.9607 31.6839C30.3496 32.4678 31.034 33.0652 31.8633 33.3446C33.1304 33.8027 34.2265 34.6385 35.0035 35.7392C35.7805 36.84 36.201 38.1527 36.2083 39.5V44.6021C35.4914 44.192 34.7429 43.8398 33.97 43.5487C33.1406 43.2694 32.2343 43.3309 31.4503 43.7198C30.6663 44.1087 30.0689 44.7931 29.7896 45.6225C29.5102 46.4518 29.5718 47.3582 29.9607 48.1422C30.3496 48.9262 31.034 49.5236 31.8633 49.8029C33.1304 50.261 34.2265 51.0968 35.0035 52.1976C35.7805 53.2983 36.201 54.611 36.2083 55.9583V62.5417C36.2083 63.4147 35.8615 64.2519 35.2442 64.8692C34.6269 65.4865 33.7897 65.8333 32.9167 65.8333C32.2798 65.8292 31.6579 65.6404 31.1262 65.2898C30.5945 64.9393 30.176 64.442 29.9213 63.8583C30.4732 63.5344 31.0012 63.1714 31.5012 62.7721C31.8341 62.4954 32.1092 62.1559 32.3108 61.773C32.5125 61.39 32.6367 60.9711 32.6764 60.5401C32.7162 60.1091 32.6706 59.6745 32.5424 59.2611C32.4142 58.8478 32.2058 58.4637 31.9292 58.1308C31.6525 57.798 31.313 57.5229 30.93 57.3212C30.5471 57.1196 30.1281 56.9954 29.6972 56.9556C29.2662 56.9159 28.8316 56.9614 28.4182 57.0897C28.0048 57.2179 27.6208 57.4263 27.2879 57.7029C26.0994 58.7035 24.5953 59.2515 23.0417 59.25C21.2957 59.25 19.6212 58.5564 18.3865 57.3218C17.1519 56.0872 16.4583 54.4127 16.4583 52.6667C16.4741 51.4277 16.8392 50.2182 17.5117 49.1775C18.2504 49.31 18.9995 49.3761 19.75 49.375C20.623 49.375 21.4603 49.0282 22.0776 48.4109C22.6949 47.7936 23.0417 46.9563 23.0417 46.0833C23.0417 45.2103 22.6949 44.3731 22.0776 43.7558C21.4603 43.1385 20.623 42.7917 19.75 42.7917C18.9725 42.7961 18.2013 42.6509 17.4787 42.3637C16.2949 41.9368 15.2582 41.1794 14.4915 40.1814C13.7249 39.1834 13.2603 37.9865 13.1529 36.7326C13.0456 35.4787 13.2998 34.2202 13.8857 33.1064C14.4715 31.9925 15.3643 31.07 16.4583 30.4479C16.9261 30.8783 17.433 31.264 17.9725 31.6C18.732 32.0365 19.6338 32.1534 20.4795 31.925C21.3252 31.6966 22.0456 31.1416 22.4821 30.3821C22.9186 29.6226 23.0355 28.7208 22.8071 27.875C22.5787 27.0293 22.0237 26.309 21.2642 25.8725C20.8008 25.6169 20.4143 25.2418 20.145 24.7862C19.8407 24.2578 19.703 23.6497 19.75 23.0417C19.75 22.1687 20.0968 21.3314 20.7141 20.7141C21.3314 20.0968 22.1687 19.75 23.0417 19.75C23.271 19.718 23.5036 19.718 23.7329 19.75C23.9072 20.2789 24.1161 20.7957 24.3583 21.2971C24.5734 21.6743 24.8609 22.0052 25.2044 22.2708C25.5479 22.5363 25.9405 22.7314 26.3597 22.8446C26.7788 22.9578 27.2162 22.9869 27.6467 22.9304C28.0772 22.8738 28.4922 22.7326 28.8679 22.515C29.5977 22.0759 30.1289 21.3711 30.3499 20.5485C30.5708 19.726 30.4644 18.8499 30.0529 18.1042C29.7767 17.5992 29.6297 17.0338 29.625 16.4583C29.625 15.5853 29.9718 14.7481 30.5891 14.1308C31.2064 13.5135 32.0437 13.1667 32.9167 13.1667C33.7897 13.1667 34.6269 13.5135 35.2442 14.1308C35.8615 14.7481 36.2083 15.5853 36.2083 16.4583V28.1437ZM61.5213 42.3637C60.7987 42.6509 60.0275 42.7961 59.25 42.7917C58.377 42.7917 57.5397 43.1385 56.9224 43.7558C56.3051 44.3731 55.9583 45.2103 55.9583 46.0833C55.9583 46.9563 56.3051 47.7936 56.9224 48.4109C57.5397 49.0282 58.377 49.375 59.25 49.375C60.0005 49.3761 60.7496 49.31 61.4883 49.1775C62.1608 50.2182 62.5259 51.4277 62.5417 52.6667C62.5417 54.4127 61.8481 56.0872 60.6135 57.3218C59.3788 58.5564 57.7043 59.25 55.9583 59.25C54.4047 59.2515 52.9006 58.7035 51.7121 57.7029C51.0399 57.1442 50.1732 56.8754 49.3028 56.9556C48.4324 57.0359 47.6296 57.4586 47.0708 58.1308C46.5121 58.803 46.2433 59.6697 46.3236 60.5401C46.4038 61.4105 46.8265 62.2134 47.4988 62.7721C47.9988 63.1714 48.5268 63.5344 49.0788 63.8583C48.824 64.442 48.4055 64.9393 47.8738 65.2898C47.3421 65.6404 46.7202 65.8292 46.0833 65.8333C45.2103 65.8333 44.3731 65.4865 43.7558 64.8692C43.1385 64.2519 42.7917 63.4147 42.7917 62.5417V55.9583C42.799 54.611 43.2195 53.2983 43.9965 52.1976C44.7735 51.0968 45.8696 50.261 47.1367 49.8029C47.966 49.5236 48.6504 48.9262 49.0393 48.1422C49.4282 47.3582 49.4898 46.4518 49.2104 45.6225C48.9311 44.7931 48.3337 44.1087 47.5497 43.7198C46.7657 43.3309 45.8594 43.2694 45.03 43.5487C44.2571 43.8398 43.5086 44.192 42.7917 44.6021V39.5C42.799 38.1527 43.2195 36.84 43.9965 35.7392C44.7735 34.6385 45.8696 33.8027 47.1367 33.3446C47.5473 33.2063 47.9267 32.9884 48.2532 32.7034C48.5796 32.4185 48.8468 32.072 49.0393 31.6839C49.2319 31.2957 49.3461 30.8734 49.3755 30.441C49.4048 30.0087 49.3487 29.5748 49.2104 29.1642C49.0721 28.7535 48.8542 28.3741 48.5693 28.0477C48.2843 27.7212 47.9379 27.4541 47.5497 27.2615C47.1615 27.0689 46.7392 26.9547 46.3069 26.9254C45.8745 26.896 45.4407 26.9521 45.03 27.0904C44.2571 27.3815 43.5086 27.7337 42.7917 28.1437V16.4583C42.7917 15.5853 43.1385 14.7481 43.7558 14.1308C44.3731 13.5135 45.2103 13.1667 46.0833 13.1667C46.9563 13.1667 47.7936 13.5135 48.4109 14.1308C49.0282 14.7481 49.375 15.5853 49.375 16.4583C49.3703 17.0338 49.2233 17.5992 48.9471 18.1042C48.7281 18.4779 48.585 18.8912 48.526 19.3203C48.4671 19.7494 48.4934 20.186 48.6035 20.6049C48.7136 21.0239 48.9053 21.417 49.1676 21.7617C49.4299 22.1064 49.7576 22.396 50.1321 22.6137C50.5078 22.8314 50.9228 22.9726 51.3533 23.0291C51.7838 23.0857 52.2212 23.0565 52.6403 22.9433C53.0595 22.8301 53.4521 22.6351 53.7956 22.3695C54.1391 22.1039 54.4266 21.773 54.6417 21.3958C54.888 20.8624 55.097 20.3124 55.2671 19.75C55.4964 19.718 55.729 19.718 55.9583 19.75C56.8313 19.75 57.6686 20.0968 58.2859 20.7141C58.9032 21.3314 59.25 22.1687 59.25 23.0417C59.245 23.6869 59.0504 24.3165 58.6904 24.8521C58.4212 25.2792 58.0473 25.6305 57.6042 25.8725C56.8447 26.309 56.2896 27.0293 56.0612 27.875C55.8328 28.7208 55.9497 29.6226 56.3862 30.3821C56.8228 31.1416 57.5431 31.6966 58.3888 31.925C59.2345 32.1534 60.1363 32.0365 60.8958 31.6C61.4868 31.2804 62.0391 30.8938 62.5417 30.4479C63.6394 31.059 64.5394 31.9714 65.1354 33.0774C65.7313 34.1835 65.9984 35.4369 65.9049 36.6898C65.8115 37.9427 65.3614 39.1427 64.608 40.1481C63.8546 41.1535 62.8292 41.9223 61.6529 42.3637H61.5213Z" fill="#99583C"/>
</svg>
