<svg width="79" height="79" viewBox="0 0 79 79" fill="none" xmlns="http://www.w3.org/2000/svg">
<path d="M39.4671 6.58334C21.2971 6.58334 6.58334 21.33 6.58334 39.5C6.58334 57.67 21.2971 72.4167 39.4671 72.4167C57.67 72.4167 72.4167 57.67 72.4167 39.5C72.4167 21.33 57.67 6.58334 39.4671 6.58334ZM39.5 65.8333C24.9508 65.8333 13.1667 54.0492 13.1667 39.5C13.1667 24.9508 24.9508 13.1667 39.5 13.1667C54.0492 13.1667 65.8333 24.9508 65.8333 39.5C65.8333 54.0492 54.0492 65.8333 39.5 65.8333Z" fill="#99583C"/>
<path d="M41.1458 23.0417H36.2083V42.7917L53.4896 53.1604L55.9583 49.1117L41.1458 40.3229V23.0417Z" fill="#99583C"/>
</svg>
