<svg width="79" height="79" viewBox="0 0 79 79" fill="none" xmlns="http://www.w3.org/2000/svg">
<path d="M32.785 37.2288C35.6158 26.6625 37.8542 19.75 42.7917 19.75C47.7292 19.75 49.9675 26.6625 52.7983 37.2288C55.9583 49.1117 59.5792 62.5417 72.4167 62.5417V55.9583C65.175 55.9583 62.5417 47.8608 59.1512 35.55C56.2217 24.5558 53.1604 13.1667 42.7917 13.1667C32.4229 13.1667 29.3617 24.5558 26.4321 35.55C23.1404 47.8608 20.4083 55.9583 13.1667 55.9583V6.58334H6.58333V72.4167H72.4167V65.8333H13.1667V62.5417C26.0042 62.5417 29.625 49.1117 32.785 37.2288Z" fill="#99583C"/>
</svg>
