<svg width="79" height="79" viewBox="0 0 79 79" fill="none" xmlns="http://www.w3.org/2000/svg">
<g clip-path="url(#clip0_1_134)">
<path fill-rule="evenodd" clip-rule="evenodd" d="M39.5 17.2812C40.8095 17.2812 42.0654 16.7611 42.9913 15.8351C43.9173 14.9091 44.4375 13.6533 44.4375 12.3438C44.4375 11.0342 43.9173 9.77837 42.9913 8.85241C42.0654 7.92645 40.8095 7.40625 39.5 7.40625C38.1905 7.40625 36.9346 7.92645 36.0087 8.85241C35.0827 9.77837 34.5625 11.0342 34.5625 12.3438C34.5625 13.6533 35.0827 14.9091 36.0087 15.8351C36.9346 16.7611 38.1905 17.2812 39.5 17.2812ZM39.5 2.57314e-07C42.3456 -0.000580528 45.104 0.982028 47.3084 2.78153C49.5128 4.58102 51.0278 7.08688 51.5969 9.875H64.1875C65.497 9.875 66.7529 10.3952 67.6788 11.3212C68.6048 12.2471 69.125 13.503 69.125 14.8125V74.0625C69.125 75.372 68.6048 76.6279 67.6788 77.5538C66.7529 78.4798 65.497 79 64.1875 79H14.8125C13.503 79 12.2471 78.4798 11.3212 77.5538C10.3952 76.6279 9.875 75.372 9.875 74.0625V14.8125C9.875 13.503 10.3952 12.2471 11.3212 11.3212C12.2471 10.3952 13.503 9.875 14.8125 9.875H27.4031C27.9722 7.08688 29.4872 4.58102 31.6916 2.78153C33.896 0.982028 36.6544 -0.000580528 39.5 2.57314e-07ZM34.5625 24.6875H51.8438V17.2812H61.7188V71.5938H17.2812V17.2812H27.1562V24.6875H34.5625ZM51.9919 40.8825C52.3557 40.5435 52.6475 40.1347 52.8499 39.6804C53.0523 39.2262 53.1611 38.7358 53.1699 38.2386C53.1787 37.7414 53.0872 37.2475 52.901 36.7864C52.7147 36.3253 52.4375 35.9064 52.0859 35.5547C51.7342 35.2031 51.3154 34.9259 50.8543 34.7396C50.3932 34.5534 49.8993 34.4619 49.402 34.4707C48.9048 34.4795 48.4145 34.5883 47.9602 34.7907C47.506 34.9931 47.0971 35.2849 46.7581 35.6487L37.0312 45.3756L34.7106 43.055C34.0086 42.4009 33.0802 42.0448 32.1208 42.0617C31.1614 42.0786 30.2461 42.4673 29.5676 43.1457C28.8891 43.8242 28.5005 44.7396 28.4836 45.6989C28.4666 46.6583 28.8228 47.5868 29.4769 48.2887L34.4144 53.2262C35.1087 53.9197 36.0499 54.3092 37.0312 54.3092C38.0126 54.3092 38.9538 53.9197 39.6481 53.2262L51.9919 40.8825Z" fill="#99583C"/>
</g>
<defs>
<clipPath id="clip0_1_134">
<rect width="79" height="79" fill="white"/>
</clipPath>
</defs>
</svg>
